# Exported by ZModeler 3.1.1 (Build 1106) with WavefrontOBJ filter (Build 66)
# 

mtllib donut_big.mtl

v -10.6434 8.6837 19.9911
v -12.1512 8.6837 19.9911
v -10.6434 8.6837 21.4625
v -10.6434 8.6837 18.5197
v -13.6589 8.6837 19.9911
v -12.1512 8.6837 19.9911
v -13.6589 8.6837 18.5197
v -13.6589 8.6837 21.4625
v -12.1512 8.6837 21.4625
v -10.6434 8.6837 21.4625
v -12.1512 8.6837 19.9911
v -13.6589 8.6837 21.4625
v -9.38041 5.72868 22.4423
v -9.67491 5.72868 22.757
v -8.68535 3.0192 23.1027
v -8.99986 3.0192 23.4335
v -9.67491 5.72868 17.2253
v -9.38046 5.72868 17.54
v -8.99984 3.0192 16.5488
v -8.68535 3.0192 16.8796
v -14.6274 5.72868 22.757
v -14.9219 5.72868 22.4423
v -15.3025 3.0192 23.4335
v -15.617 3.0192 23.1027
v -14.9219 5.72868 17.54
v -14.6274 5.72868 17.2253
v -15.617 3.0192 16.8796
v -15.3025 3.0192 16.5488
v -10.6434 8.6837 18.5197
v -10.7806 8.6837 18.3704
v -12.1512 8.6837 19.9911
v -12.2198 8.6837 18.4451
v -13.6589 8.6837 18.5197
v -15.9775 0.309717 15.8722
v -15.613 3.93391e-007 16.6151
v -16.3121 0.309717 16.2192
v -15.617 3.0192 16.8796
v -15.3025 3.0192 16.5488
v -8.32476 0.309718 24.11
v -8.68933 3.93391e-007 23.3671
v -7.99027 0.309717 23.7631
v -8.68535 3.0192 23.1027
v -8.99986 3.0192 23.4335
v -10.0755 8.43817 21.7818
v -10.6434 8.6837 21.4625
v -10.35 8.43817 22.0805
v -9.67491 5.72868 22.757
v -9.38041 5.72868 22.4423
v -14.2268 8.43817 18.2004
v -13.6589 8.6837 18.5197
v -13.9524 8.43817 17.9018
v -14.6274 5.72868 17.2253
v -14.9219 5.72868 17.54
v -8.68535 3.0192 16.8796
v -9.38046 5.72868 17.54
v -8.68535 3.0192 19.9911
v -9.38046 5.72868 19.9911
v -9.38041 5.72868 22.4423
v -8.68535 3.0192 23.1027
v -8.99986 3.0192 23.4335
v -9.67491 5.72868 22.757
v -12.1512 3.0192 23.4335
v -12.1512 5.72868 22.757
v -14.6274 5.72868 22.757
v -15.3025 3.0192 23.4335
v -15.617 3.0192 23.1027
v -14.9219 5.72868 22.4423
v -15.617 3.0192 19.9911
v -14.9219 5.72868 19.9911
v -14.9219 5.72868 17.54
v -15.617 3.0192 16.8796
v -15.3025 3.0192 16.5488
v -14.6274 5.72868 17.2253
v -12.1512 3.0192 16.5488
v -12.1512 5.72868 17.2253
v -9.67491 5.72868 17.2253
v -8.99984 3.0192 16.5488
v -14.6274 5.72868 22.757
v -13.9524 8.43817 22.0805
v -14.9219 5.72868 22.4423
v -14.2268 8.43817 21.7818
v -14.9219 5.72868 19.9911
v -13.6589 8.6837 21.4625
v -14.2268 8.43817 19.9911
v -13.6589 8.6837 19.9911
v -13.6589 8.6837 18.5197
v -14.2268 8.43817 18.2004
v -14.9219 5.72868 17.54
v -9.67491 5.72868 17.2253
v -10.35 8.43817 17.9018
v -9.38046 5.72868 17.54
v -10.0755 8.43817 18.2004
v -10.7806 8.6837 18.3704
v -10.6434 8.6837 18.5197
v -9.38046 5.72868 19.9911
v -9.38041 5.72868 22.4423
v -10.0755 8.43817 21.7818
v -10.0755 8.43817 19.9911
v -10.6434 8.6837 19.9911
v -10.6434 8.6837 21.4625
v -9.67491 5.72868 22.757
v -10.35 8.43817 22.0805
v -12.1512 5.72868 22.757
v -14.6274 5.72868 22.757
v -13.9524 8.43817 22.0805
v -12.1512 8.43817 22.0805
v -10.6434 8.6837 21.4625
v -12.1512 8.6837 21.4625
v -13.6589 8.6837 21.4625
v -14.6274 5.72868 17.2253
v -13.9524 8.43817 17.9018
v -12.1512 5.72868 17.2253
v -9.67491 5.72868 17.2253
v -10.35 8.43817 17.9018
v -12.1512 8.43817 17.9018
v -13.6589 8.6837 18.5197
v -12.2198 8.6837 18.4451
v -10.7806 8.6837 18.3704
v -15.9776 0.309718 24.11
v -15.3025 3.0192 23.4335
v -16.3121 0.309717 23.763
v -15.617 3.0192 23.1027
v -15.613 3.93391e-007 23.3671
v -16.3121 0.309717 19.9911
v -15.617 3.0192 19.9911
v -15.617 3.0192 16.8796
v -16.3121 0.309717 16.2192
v -15.613 3.93391e-007 16.6151
v -15.613 3.93391e-007 19.9911
v -8.32479 0.309717 15.8722
v -8.99984 3.0192 16.5488
v -7.99029 0.309717 16.2192
v -8.68535 3.0192 16.8796
v -8.68938 3.93391e-007 16.6151
v -7.99027 0.309717 19.9911
v -8.68535 3.0192 19.9911
v -8.68535 3.0192 23.1027
v -7.99027 0.309717 23.7631
v -8.68933 3.93391e-007 23.3671
v -8.68936 3.93391e-007 19.9911
v -12.1512 3.93391e-007 16.6151
v -15.613 3.93391e-007 16.6151
v -12.1512 0.309717 15.8722
v -15.9775 0.309717 15.8722
v -15.3025 3.0192 16.5488
v -12.1512 3.0192 16.5488
v -8.99984 3.0192 16.5488
v -8.32479 0.309717 15.8722
v -8.68938 3.93391e-007 16.6151
v -12.1512 3.93391e-007 23.3671
v -8.68933 3.93391e-007 23.3671
v -12.1512 0.309718 24.11
v -8.32476 0.309718 24.11
v -8.99986 3.0192 23.4335
v -12.1512 3.0192 23.4335
v -15.3025 3.0192 23.4335
v -15.9776 0.309718 24.11
v -15.613 3.93391e-007 23.3671


vn -0 1 0
vn 0.688361 0.33358 0.644115
vn 0.683507 0.332533 0.6498
vn 0.68869 0.332467 -0.644338
vn 0.683261 0.333597 -0.649513
vn -0.688677 0.332461 0.644355
vn -0.683235 0.333594 0.649541
vn -0.688388 0.33358 -0.644085
vn -0.68357 0.33254 -0.64973
vn -0.266233 -0.929099 -0.2567
vn -0.678645 0.333584 -0.654342
vn -0.683573 0.332526 -0.649734
vn 0.266241 -0.9291 0.256689
vn 0.678669 0.333586 0.654315
vn 0.683503 0.332549 0.649796
vn 0.265804 0.932553 0.244323
vn 0.694375 0.332368 0.638259
vn 0.688359 0.333586 0.644113
vn -0.265829 0.932554 -0.244291
vn -0.694449 0.332358 -0.638184
vn -0.688387 0.333585 -0.644084
vn 0.968632 0.2485 -6.28356e-008
vn 0.968632 0.2485 7.9765e-008
vn 0.968632 0.2485 -1.98988e-005
vn 0.968636 0.248483 0
vn -0 0.242244 0.970215
vn 7.69674e-008 0.242244 0.970215
vn -0.968634 0.248492 -6.28335e-008
vn -0.968634 0.248492 0
vn -0.968636 0.248485 -7.83772e-006
vn 3.81517e-006 0.242247 -0.970214
vn 3.81517e-006 0.242248 -0.970214
vn -7.69674e-008 0.242244 -0.970215
vn -7.69682e-008 0.242244 -0.970215
vn -0 0.242244 -0.970215
vn -0.694166 0.333559 0.637865
vn -0.968632 0.2485 0
vn -0.265847 0.93255 0.244286
vn -0.396864 0.917877 7.19291e-006
vn -0.396849 0.917884 0
vn 0.688691 0.332464 -0.644339
vn 0.694126 0.33355 -0.637913
vn 0.265827 0.932553 -0.244299
vn 0.265818 0.932548 -0.244326
vn 0.968636 0.248483 7.97595e-008
vn 0.968635 0.248487 -1.98988e-005
vn 0.968636 0.248483 -1.31821e-005
vn 0.396834 0.91789 1.35803e-005
vn 0.396834 0.91789 -6.79016e-006
vn -0 0.242248 0.970214
vn 6.78064e-006 0.242248 0.970214
vn -0 0.929325 0.369263
vn -7.69695e-008 0.242248 -0.970214
vn 6.78074e-006 0.242244 -0.970215
vn -0 0.929329 -0.369253
vn -0.0214736 0.910032 -0.413981
vn -0.0214769 0.910032 -0.413981
vn -0.678923 0.332589 0.65456
vn -0.678923 0.332588 0.65456
vn -0.683237 0.333586 0.649544
vn -0.266236 -0.929103 0.256683
vn -0.405056 -0.914292 2.79904e-006
vn -0.968634 0.248492 -7.8377e-006
vn -0.968634 0.248493 -6.49138e-006
vn -0.405055 -0.914292 -2.60832e-006
vn -0.405057 -0.914292 -3.02077e-006
vn 0.678912 0.332586 -0.654573
vn 0.683262 0.333591 -0.649515
vn 0.266232 -0.929103 -0.256689
vn 0.405055 -0.914292 -2.60831e-006
vn 0.968634 0.248492 -6.28335e-008
vn 0.968634 0.248492 0
vn 0.968634 0.248492 -2.59161e-008
vn 0.405069 -0.914286 9.53541e-008
vn 0.405057 -0.914292 -3.02078e-006
vn -0 -0.922997 -0.384807
vn -0 0.242248 -0.970214
vn -3.19191e-006 0.242252 -0.970213
vn -1.26596e-006 -0.922999 -0.384802
vn -1.39923e-006 -0.923004 0.384791
vn -0 -0.923001 0.384797
vn -0 0.242253 0.970213
vn -3.19193e-006 0.242249 0.970214
vn -1.26595e-006 -0.923002 0.384796


vt 0.638184 -0.18689
vt 0.468506 -0.18689
vt 0.638184 -0.327881
vt 0.638184 -0.0460205
vt 0.298828 -0.18689
vt 0.298828 -0.0460205
vt 0.298828 -0.327881
vt 0.468506 -0.327881
vt 0.116699 -0.387207
vt 0.0681763 -0.395996
vt 0.0108643 -0.623535
vt 0.00103092 -0.621582
vt 0.13623 -0.361328
vt 0.0966797 -0.346436
vt 0.0157471 -0.619629
vt 0.00418854 -0.621582
vt 0.123901 -0.38501
vt 0.0845947 -0.371826
vt 0.0154114 -0.620117
vt 0.00449371 -0.621094
vt 0.117249 -0.387207
vt 0.0689087 -0.395264
vt 0.0111542 -0.623047
vt 0.00213242 -0.621094
vt 0.623047 -0.0332031
vt 0.460938 -0.0396118
vt 0.944824 -0.964844
vt 0.966797 -0.998047
vt 1 -0.965332
vt 0.90918 -0.652832
vt 0.855469 -0.652344
vt 0.726563 -0.028183
vt 0.654297 -0.00235367
vt 0.675781 -0.0281067
vt 0.765625 -0.340332
vt 0.817871 -0.340576
vt 0.950684 -0.620605
vt 0.854492 -0.384766
vt 0.483154 -0.617676
vt 0.483643 -0.38501
vt 0.104004 -0.387207
vt 0.952148 -0.620605
vt 0.850586 -0.386719
vt 0.482422 -0.618164
vt 0.483154 -0.386719
vt 0.115784 -0.386475
vt 0.951172 -0.620605
vt 0.855469 -0.384766
vt 0.483643 -0.617676
vt 0.484375 -0.38501
vt 0.104614 -0.386963
vt 0.851074 -0.386475
vt 0.482178 -0.618164
vt 0.484131 -0.386475
vt 0.11499 -0.387695
vt 0.468262 -0.340332
vt 0.654297 -0.00235748
vt 0.466064 -0.0282135
vt 0.482422 -0.00233841
vt 0.310547 -0.00231743
vt 0.256348 -0.0283203
vt 0.170898 -0.340332
vt 0.687012 -0.00236511
vt 0.654297 -0.0023613
vt 0.256348 -0.0283051
vt 0.466064 -0.0281982
vt 0.482422 -0.00234604
vt 0.310547 -0.00233078
vt 0.310547 -0.00232124
vt 0.472656 -0.964844
vt 0.470459 -0.652344
vt 0.0855713 -0.652344
vt 0.000208378 -0.964844
vt 0.0150375 -0.997559
vt 0.490967 -0.998047
vt 0.000165224 -0.964844
vt 0.0150452 -0.997559
vt 0.490723 -0.998047
vt 0.000163794 -0.964844
vt 0.0150299 -0.997559
vt 0.000172138 -0.964844


usemtl gym_donut

f 1/1/1 2/2/1 3/3/1
f 4/4/1 2/2/1 1/1/1
f 5/5/1 6/2/1 7/6/1
f 8/7/1 6/2/1 5/5/1
f 9/8/1 10/3/1 11/2/1
f 12/7/1 9/8/1 11/2/1
f 13/9/2 14/10/2 15/11/2
f 16/12/3 15/11/2 14/10/2
f 17/13/4 18/14/4 19/15/4
f 20/16/5 19/15/4 18/14/4
f 21/17/6 22/18/6 23/19/6
f 24/20/7 23/19/6 22/18/6
f 25/21/8 26/22/8 27/23/8
f 28/24/9 27/23/8 26/22/8
f 29/4/1 30/25/1 31/2/1
f 32/26/1 31/2/1 30/25/1
f 33/6/1 31/2/1 32/26/1
f 34/27/10 35/28/10 36/29/10
f 36/29/10 37/30/11 34/27/10
f 38/31/12 34/27/10 37/30/11
f 39/27/13 40/28/13 41/29/13
f 41/29/13 42/30/14 39/27/13
f 43/31/15 39/27/13 42/30/14
f 44/32/16 45/33/16 46/34/16
f 46/34/16 47/35/17 44/32/16
f 48/36/18 44/32/16 47/35/17
f 49/32/19 50/33/19 51/34/19
f 51/34/19 52/35/20 49/32/19
f 53/36/21 49/32/19 52/35/20
f 54/37/22 55/38/22 56/39/22
f 57/40/23 56/39/22 55/38/22
f 57/40/23 58/41/24 56/39/22
f 59/11/25 56/39/22 58/41/24
f 60/42/26 61/43/26 62/44/26
f 63/45/26 62/44/26 61/43/26
f 63/45/26 64/46/27 62/44/26
f 65/19/26 62/44/26 64/46/27
f 66/47/28 67/48/28 68/49/28
f 69/50/29 68/49/28 67/48/28
f 69/50/29 70/51/29 68/49/28
f 71/23/30 68/49/28 70/51/29
f 72/42/31 73/52/32 74/53/32
f 75/54/33 74/53/32 73/52/32
f 75/54/33 76/55/34 74/53/32
f 77/15/35 74/53/32 76/55/34
f 78/36/6 79/32/6 80/35/6
f 81/34/36 80/35/6 79/32/6
f 80/35/6 81/34/36 82/56/37
f 79/32/6 83/57/38 81/34/36
f 81/34/36 83/57/38 84/58/39
f 84/58/39 82/56/37 81/34/36
f 85/59/40 84/58/39 83/57/38
f 85/59/40 86/60/40 84/58/39
f 87/61/40 84/58/39 86/60/40
f 84/58/39 87/61/40 82/56/37
f 88/62/29 82/56/37 87/61/40
f 89/36/41 90/32/41 91/35/41
f 92/34/42 91/35/41 90/32/41
f 90/32/41 93/63/43 92/34/42
f 94/64/44 92/34/42 93/63/43
f 91/35/41 92/34/42 95/56/45
f 96/62/46 95/56/45 97/65/46
f 98/66/47 97/65/46 95/56/45
f 98/66/47 95/56/45 92/34/42
f 92/34/42 94/64/44 98/66/47
f 99/67/48 98/66/47 94/64/44
f 99/67/48 100/68/49 98/66/47
f 97/65/46 98/66/47 100/68/49
f 101/35/50 102/34/50 103/56/50
f 104/62/27 103/56/50 105/65/27
f 106/58/51 105/65/27 103/56/50
f 106/58/51 103/56/50 102/34/50
f 102/34/50 107/33/52 106/58/51
f 108/59/52 106/58/51 107/33/52
f 108/59/52 109/69/52 106/58/51
f 105/65/27 106/58/51 109/69/52
f 110/35/33 111/34/33 112/56/33
f 113/62/53 112/56/33 114/65/53
f 115/58/54 114/65/53 112/56/33
f 115/58/54 112/56/33 111/34/33
f 111/34/33 116/33/55 115/58/54
f 117/59/56 115/58/54 116/33/55
f 117/59/56 118/69/57 115/58/54
f 114/65/53 115/58/54 118/69/57
f 119/29/58 120/30/58 121/27/59
f 122/31/60 121/27/59 120/30/58
f 121/27/59 123/28/61 119/29/58
f 121/27/59 124/70/62 123/28/61
f 121/27/59 122/31/60 124/70/62
f 125/71/28 124/70/62 122/31/60
f 125/71/28 126/72/63 124/70/62
f 127/73/64 124/70/62 126/72/63
f 127/73/64 128/74/65 124/70/62
f 129/75/66 124/70/62 128/74/65
f 129/75/66 123/28/61 124/70/62
f 130/29/67 131/30/67 132/27/67
f 133/31/68 132/27/67 131/30/67
f 132/27/67 134/28/69 130/29/67
f 132/27/67 135/70/70 134/28/69
f 132/27/67 133/31/68 135/70/70
f 136/71/71 135/70/70 133/31/68
f 136/71/71 137/72/72 135/70/70
f 138/76/73 135/70/70 137/72/72
f 138/76/73 139/77/74 135/70/70
f 140/78/75 135/70/70 139/77/74
f 140/78/75 134/28/69 135/70/70
f 141/78/76 142/28/76 143/70/76
f 144/27/76 143/70/76 142/28/76
f 144/27/76 145/31/35 143/70/76
f 146/71/32 143/70/76 145/31/35
f 146/71/32 147/72/77 143/70/76
f 148/79/78 143/70/76 147/72/77
f 148/79/78 149/80/79 143/70/76
f 141/78/76 143/70/76 149/80/79
f 150/78/80 151/28/80 152/70/80
f 153/27/81 152/70/80 151/28/80
f 153/27/81 154/31/82 152/70/80
f 155/71/82 152/70/80 154/31/82
f 155/71/82 156/72/82 152/70/80
f 157/81/83 152/70/80 156/72/82
f 157/81/83 158/74/84 152/70/80
f 150/78/80 152/70/80 158/74/84
