# Exported by ZModeler 3.1.1 (Build 1106) with WavefrontOBJ filter (Build 66)
# 

mtllib drift_pole.mtl

v -0.255437 0.222296 -33.9754
v -0.562697 0.164711 -33.8566
v -0.326587 0.164711 -33.6538
v 0.279297 0.222296 -34.016
v 0.398133 0.164711 -33.7088
v 0.600984 0.164711 -33.9449
v -0.295948 0.222296 -34.5102
v -0.414807 0.164711 -34.8174
v -0.617634 0.164711 -34.5813
v 0.238763 0.222296 -34.5507
v 0.546022 0.164711 -34.6695
v 0.309937 0.164711 -34.8723
v 0.561305 -0.0717847 -34.6755
v 0.546022 0.164711 -34.6695
v 0.616971 -0.0717847 -33.9412
v 0.600984 0.164711 -33.9449
v 0.616971 -0.0717847 -33.9412
v 0.546022 0.164711 -34.6695
v -0.577954 -0.0717847 -33.8506
v -0.562697 0.164711 -33.8566
v -0.633647 -0.0717847 -34.5849
v -0.617634 0.164711 -34.5813
v -0.633647 -0.0717847 -34.5849
v -0.562697 0.164711 -33.8566
v 0.279297 0.222296 -34.016
v 0.238763 0.222296 -34.5507
v -0.255437 0.222296 -33.9754
v -0.295948 0.222296 -34.5102
v -0.255437 0.222296 -33.9754
v -0.326587 0.164711 -33.6538
v 0.279297 0.222296 -34.016
v 0.398133 0.164711 -33.7088
v 0.279297 0.222296 -34.016
v 0.600984 0.164711 -33.9449
v 0.238763 0.222296 -34.5507
v 0.546022 0.164711 -34.6695
v 0.238763 0.222296 -34.5507
v 0.309937 0.164711 -34.8723
v -0.295948 0.222296 -34.5102
v -0.414807 0.164711 -34.8174
v -0.295948 0.222296 -34.5102
v -0.617634 0.164711 -34.5813
v -0.255437 0.222296 -33.9754
v -0.562697 0.164711 -33.8566
v 0.40405 -0.0717847 -33.6934
v 0.398133 0.164711 -33.7088
v -0.330086 -0.0717847 -33.6378
v -0.326587 0.164711 -33.6538
v -0.420675 -0.0717847 -34.8327
v -0.414807 0.164711 -34.8174
v 0.313462 -0.0717847 -34.8883
v 0.309937 0.164711 -34.8723
v -0.330086 -0.0717847 -33.6378
v -0.326587 0.164711 -33.6538
v -0.577954 -0.0717847 -33.8506
v -0.562697 0.164711 -33.8566
v 0.616971 -0.0717847 -33.9412
v 0.600984 0.164711 -33.9449
v 0.40405 -0.0717847 -33.6934
v 0.398133 0.164711 -33.7088
v -0.633647 -0.0717847 -34.5849
v -0.617634 0.164711 -34.5813
v -0.420675 -0.0717847 -34.8327
v -0.414807 0.164711 -34.8174
v 0.313462 -0.0717847 -34.8883
v 0.309937 0.164711 -34.8723
v 0.561305 -0.0717847 -34.6755
v 0.546022 0.164711 -34.6695
v -0.0166083 0.505027 -34.3722
v 0.100767 0.505027 -34.2714
v -0.0166083 0.161318 -34.3722
v 0.100767 0.161318 -34.2714
v -4.18462e-005 0.505027 -34.1539
v -4.18462e-005 0.161318 -34.1539
v -0.117392 0.505027 -34.2547
v -0.117392 0.161318 -34.2547
v -0.0166083 0.505027 -34.3722
v -0.0166083 0.161318 -34.3722
v -0.306094 1.47239 -34.5189
v -0.306094 4.02846 -34.5189
v -0.0379836 1.47239 -34.6545
v -0.0379836 4.02846 -34.6545
v 0.247498 1.47239 -34.5608
v 0.247498 4.02846 -34.5608
v 0.383128 1.47239 -34.2927
v 0.383128 4.02846 -34.2927
v 0.289418 1.47239 -34.0072
v 0.289418 4.02846 -34.0072
v 0.0213334 1.47239 -33.8716
v 0.0213334 4.02846 -33.8716
v -0.264123 1.47239 -33.9653
v -0.264123 4.02846 -33.9653
v -0.399777 1.47239 -34.2334
v -0.399777 4.02846 -34.2334
v -0.306094 1.47239 -34.5189
v -0.306094 4.02846 -34.5189
v 0.0213334 4.77162 -33.8716
v -0.264123 4.02846 -33.9653
v 0.289418 4.77162 -34.0072
v 0.289418 4.02846 -34.0072
v 0.383128 4.77162 -34.2927
v 0.383128 4.02846 -34.2927
v 0.247498 4.77162 -34.5608
v 0.247498 4.02846 -34.5608
v -0.0379836 4.77162 -34.6545
v -0.0379836 4.02846 -34.6545
v -0.306094 4.02846 -34.5189
v -0.306094 4.77162 -34.5189
v -0.279834 4.89006 -34.4963
v -0.21684 4.9945 -34.4422
v -0.029096 4.9945 -34.537
v -0.0353903 4.89006 -34.62
v 0.170784 4.9945 -34.4715
v 0.224914 4.89006 -34.5346
v 0.265752 4.9945 -34.2838
v 0.348583 4.89006 -34.2902
v 0.200166 4.9945 -34.084
v 0.263184 4.89006 -34.0298
v 0.0124711 4.9945 -33.9889
v 0.018715 4.89006 -33.9061
v -0.187434 4.9945 -34.0546
v -0.24159 4.89006 -33.9916
v -0.282401 4.9945 -34.2424
v -0.365259 4.89006 -34.2359
v -0.21684 4.9945 -34.4422
v -0.279834 4.89006 -34.4963
v -0.306094 4.77162 -34.5189
v -0.399777 4.77162 -34.2334
v -0.306094 4.02846 -34.5189
v -0.399777 4.02846 -34.2334
v -0.264123 4.77162 -33.9653
v -0.283459 0.60092 -34.4994
v -0.369993 0.60092 -34.2356
v -0.306094 0.711434 -34.5189
v -0.306094 1.47239 -34.5189
v -0.399777 1.47239 -34.2334
v -0.399777 0.711434 -34.2334
v -0.244687 0.60092 -33.9879
v -0.264123 1.47239 -33.9653
v -0.264123 0.711434 -33.9653
v 0.0190927 0.60092 -33.9015
v 0.0213334 1.47239 -33.8716
v 0.0213334 0.711434 -33.8716
v 0.266785 0.60092 -34.0267
v 0.289418 1.47239 -34.0072
v 0.289418 0.711434 -34.0072
v 0.353342 0.60092 -34.2905
v 0.383128 1.47239 -34.2927
v 0.383128 0.711434 -34.2927
v 0.228011 0.60092 -34.5382
v 0.247498 1.47239 -34.5608
v 0.247498 0.711434 -34.5608
v -0.0357429 0.60092 -34.6247
v -0.0379836 1.47239 -34.6545
v -0.0379836 0.711434 -34.6545
v -0.283459 0.60092 -34.4994
v -0.306094 0.711434 -34.5189
v -0.306094 1.47239 -34.5189
v 0.265752 4.9945 -34.2838
v 0.170784 4.9945 -34.4715
v -0.00832501 5.0395 -34.263
v -0.029096 4.9945 -34.537
v -0.21684 4.9945 -34.4422
v -0.282401 4.9945 -34.2424
v -0.187434 4.9945 -34.0546
v 0.0124711 4.9945 -33.9889
v 0.200166 4.9945 -34.084
v 0.107993 0.461721 -34.2719
v 0.0659219 0.461721 -34.3752
v 0.353342 0.60092 -34.2905
v 0.228011 0.60092 -34.5382
v 0.266785 0.60092 -34.0267
v 0.0819345 0.461721 -34.1633
v 0.0190927 0.60092 -33.9015
v 0.00300455 0.461721 -34.1133
v -0.244687 0.60092 -33.9879
v -0.0825468 0.461721 -34.1509
v -0.369993 0.60092 -34.2356
v -0.124643 0.461721 -34.2542
v -0.283459 0.60092 -34.4994
v -0.0986099 0.461721 -34.3628
v -0.0357429 0.60092 -34.6247
v -0.0196798 0.461721 -34.4128


vn -0.126761 0.980897 0.147554
vn -0.126762 0.980897 0.147554
vn 0.147545 0.980899 0.126761
vn 0.147544 0.980899 0.126761
vn -0.147553 0.980899 -0.126746
vn 0.126772 0.980898 -0.147542
vn 0.994952 0.0661815 -0.0754403
vn 0.994954 0.0661354 -0.0754554
vn -0.994956 0.0660727 0.0754747
vn -0.994949 0.0662376 0.0754205
vn -0 1 0
vn 0.0135767 0.983737 0.179102
vn 0.0135765 0.983737 0.179102
vn 0.179103 0.983737 -0.0135774
vn 0.179114 0.983735 -0.0135836
vn -0.0135774 0.983737 -0.179103
vn -0.013576 0.983737 -0.179101
vn -0.179101 0.983737 0.0135688
vn -0.179115 0.983734 0.0135775
vn 0.0754261 0.0661284 0.994956
vn 0.075421 0.0661441 0.994956
vn -0.0754434 0.0660601 -0.994959
vn -0.0754184 0.0661362 -0.994956
vn -0.650404 0.0608088 0.757151
vn -0.650432 0.0608631 0.757122
vn 0.757131 0.060877 0.65042
vn 0.757098 0.0609387 0.650452
vn -0.757034 0.0609871 -0.650523
vn -0.757165 0.0607408 -0.650394
vn 0.650439 0.0608761 -0.757115
vn 0.650491 0.0609749 -0.757063
vn 0.651588 0 -0.758573
vn 0.758578 0 0.651582
vn -0.651669 0 0.758504
vn -0.758659 0 -0.651488
vn -0.451432 0 -0.892306
vn 0.311762 0 -0.95016
vn 0.892323 0 -0.451398
vn 0.950127 0 0.311863
vn 0.451432 0 0.892305
vn -0.311787 0 0.950152
vn -0.892289 0 0.451465
vn -0.950148 0 -0.3118
vn -0.435808 0.260806 -0.861424
vn -0.363719 0.592065 -0.719144
vn -0.363771 0.592266 -0.718952
vn 0.251218 0.592221 -0.765613
vn 0.719025 0.592172 -0.36378
vn 0.719037 0.59216 -0.363777
vn 0.765697 0.592101 0.251246
vn 0.765662 0.592172 0.251185
vn 0.363753 0.592196 0.719019
vn 0.363745 0.592165 0.719048
vn -0.251125 0.592315 0.765572
vn -0.251223 0.592201 0.765627
vn -0.718982 0.592252 0.363734
vn -0.718963 0.592272 0.363739
vn -0.765629 0.592239 -0.251127
vn -0.765723 0.592049 -0.251291
vn -0.917273 0.260757 -0.301026
vn -0.917285 0.260727 -0.301016
vn -0.9219 -0.242112 -0.30246
vn -0.865734 -0.242254 0.437971
vn -0.302458 -0.242313 0.921848
vn 0.438001 -0.242296 0.865707
vn 0.921864 -0.242153 0.302536
vn 0.8657 -0.242246 -0.438042
vn 0.302474 -0.242445 -0.921808
vn -0.437965 -0.2423 -0.865724
vn -0.437984 -0.242259 -0.865725
vn 0.15573 0.984652 -0.0787895
vn 0.15573 0.984652 -0.0787894
vn 0.0544142 0.984652 -0.165833
vn -0.0787676 0.984653 -0.155739
vn -0.165824 0.984654 -0.0543903
vn -0.155731 0.984653 0.0787844
vn -0.0543981 0.984652 0.165836
vn 0.0787845 0.984653 0.155731
vn 0.473134 -0.859681 -0.192593
vn 0.479892 -0.843054 -0.242824
vn 0.496188 -0.852808 0.162838
vn 0.534302 -0.835497 0.128322
vn 0.253284 -0.827788 0.500613
vn 0.319541 -0.802877 0.503271
vn -0.180341 -0.815695 0.549654
vn -0.219261 -0.838781 0.498368
vn -0.479851 -0.843098 0.242754
vn -0.473121 -0.859659 0.192726
vn -0.496183 -0.85282 -0.162789
vn -0.534374 -0.83547 -0.128197
vn -0.253267 -0.827782 -0.500632
vn -0.319556 -0.802856 -0.503295


vt 0.153564 -0.25293
vt 0.0530396 -0.29834
vt 0.109131 -0.355713
vt 0.247803 -0.25293
vt 0.292236 -0.355713
vt 0.348389 -0.29834
vt 0.153564 -0.156616
vt 0.109131 -0.0539246
vt 0.0530396 -0.111206
vt 0.247803 -0.156616
vt 0.348389 -0.111206
vt 0.292236 -0.0539246
vt 0.389648 -0.110657
vt 0.355713 -0.110657
vt 0.389648 -0.298828
vt 0.355713 -0.298828
vt 0.0117264 -0.298828
vt 0.0455933 -0.298828
vt 0.0117264 -0.110657
vt 0.0455933 -0.110657
vt 0.292969 -0.397949
vt 0.292969 -0.363281
vt 0.108582 -0.397949
vt 0.108582 -0.363281
vt 0.108582 -0.0117264
vt 0.108582 -0.0463257
vt 0.292969 -0.0117264
vt 0.292969 -0.0463257
vt 0.0845947 -0.397949
vt 0.0117264 -0.323486
vt 0.389648 -0.323486
vt 0.316895 -0.397949
vt 0.0117264 -0.0861816
vt 0.0845947 -0.0117264
vt 0.316895 -0.0117264
vt 0.389648 -0.0861816
vt 0.448242 -0.00671768
vt 0.381348 -0.00671768
vt 0.448242 -0.06604
vt 0.381348 -0.06604
vt 0.314453 -0.00671768
vt 0.314453 -0.06604
vt 0.247314 -0.00671768
vt 0.247314 -0.06604
vt 0.18042 -0.00671768
vt 0.18042 -0.06604
vt 0.998535 -1
vt 0.998535 -0.281494
vt 0.936035 -1
vt 0.936035 -0.281494
vt 0.874023 -1
vt 0.874023 -0.281494
vt 0.812012 -1
vt 0.812012 -0.281494
vt 0.75 -1
vt 0.75 -0.281494
vt 0.687988 -1
vt 0.687988 -0.281494
vt 0.625977 -1
vt 0.625977 -0.281494
vt 0.563965 -1
vt 0.563965 -0.281494
vt 0.501953 -1
vt 0.501953 -0.281494
vt 0.687988 -0.0653076
vt 0.75 -0.0653076
vt 0.812012 -0.0653076
vt 0.874023 -0.0653076
vt 0.936035 -0.0653076
vt 0.998535 -0.0653076
vt 0.998535 -0.0245361
vt 0.998535 -0.000499725
vt 0.936035 -0.000499725
vt 0.936035 -0.0245361
vt 0.874023 -0.000499725
vt 0.874023 -0.0245361
vt 0.812012 -0.000499725
vt 0.812012 -0.0245361
vt 0.75 -0.000499725
vt 0.75 -0.0245361
vt 0.687988 -0.000499725
vt 0.687988 -0.0245361
vt 0.625977 -0.000499725
vt 0.625977 -0.0245361
vt 0.563965 -0.000499725
vt 0.563965 -0.0245361
vt 0.501953 -0.000499725
vt 0.501953 -0.0245361
vt 0.501953 -0.0653076
vt 0.563965 -0.0653076
vt 0.625977 -0.0653076
vt 0.998535 -0.0116501
vt 0.936523 -0.0115738
vt 0.997559 -0.0480957
vt 0.935547 -0.0482483
vt 0.874512 -0.0115738
vt 0.873535 -0.0482483
vt 0.8125 -0.0115738
vt 0.811523 -0.0482483
vt 0.750488 -0.0115738
vt 0.749512 -0.0482483
vt 0.688477 -0.0115738
vt 0.6875 -0.0482483
vt 0.626465 -0.0115738
vt 0.625488 -0.0482483
vt 0.564453 -0.0115738
vt 0.563477 -0.0482483
vt 0.50293 -0.0114975
vt 0.501953 -0.0484009
vt 0.335938 -0.668945
vt 0.223511 -0.715332
vt 0.335938 -0.828125
vt 0.177002 -0.828125
vt 0.223511 -0.94043
vt 0.335938 -0.986816
vt 0.448486 -0.94043
vt 0.495117 -0.828125
vt 0.448486 -0.715332
vt 0.369873 -0.79541
vt 0.329346 -0.774902
vt 0.448486 -0.716797
vt 0.33667 -0.67041
vt 0.494873 -0.829102
vt 0.391113 -0.835449
vt 0.448486 -0.941895
vt 0.380371 -0.872559
vt 0.33667 -0.988281
vt 0.343994 -0.883789
vt 0.224976 -0.941895
vt 0.303467 -0.863281
vt 0.178711 -0.829102
vt 0.282227 -0.822754
vt 0.224976 -0.716797
vt 0.292969 -0.786133


usemtl gym_drift_post_a_d

f 1/1/1 2/2/2 3/3/2
f 4/4/3 5/5/4 6/6/4
f 7/7/5 8/8/5 9/9/5
f 10/10/6 11/11/6 12/12/6
f 13/13/7 14/14/7 15/15/7
f 16/16/8 17/15/8 18/14/8
f 19/17/9 20/18/9 21/19/9
f 22/20/10 23/19/10 24/18/10
f 25/4/11 26/10/11 27/1/11
f 28/7/11 27/1/11 26/10/11
f 29/1/12 30/3/12 31/4/12
f 32/5/13 31/4/12 30/3/12
f 33/4/14 34/6/14 35/10/14
f 36/11/15 35/10/14 34/6/14
f 37/10/16 38/12/16 39/7/16
f 40/8/17 39/7/16 38/12/16
f 41/7/18 42/9/18 43/1/18
f 44/2/19 43/1/18 42/9/18
f 45/21/20 46/22/20 47/23/20
f 48/24/21 47/23/20 46/22/20
f 49/25/22 50/26/22 51/27/22
f 52/28/23 51/27/22 50/26/22
f 53/29/24 54/3/24 55/30/24
f 56/2/25 55/30/24 54/3/24
f 57/31/26 58/6/26 59/32/26
f 60/5/27 59/32/26 58/6/26
f 61/33/28 62/9/28 63/34/28
f 64/8/29 63/34/28 62/9/28
f 65/35/30 66/12/30 67/36/30
f 68/11/31 67/36/30 66/12/30
f 69/37/32 70/38/32 71/39/32
f 72/40/32 71/39/32 70/38/32
f 70/38/32 73/41/33 72/40/32
f 74/42/33 72/40/32 73/41/33
f 73/41/33 75/43/34 74/42/33
f 76/44/34 74/42/33 75/43/34
f 75/43/34 77/45/35 76/44/34
f 78/46/35 76/44/34 77/45/35
f 79/47/36 80/48/36 81/49/36
f 82/50/36 81/49/36 80/48/36
f 81/49/36 82/50/36 83/51/37
f 84/52/37 83/51/37 82/50/36
f 83/51/37 84/52/37 85/53/38
f 86/54/38 85/53/38 84/52/37
f 85/53/38 86/54/38 87/55/39
f 88/56/39 87/55/39 86/54/38
f 87/55/39 88/56/39 89/57/40
f 90/58/40 89/57/40 88/56/39
f 89/57/40 90/58/40 91/59/41
f 92/60/41 91/59/41 90/58/40
f 91/59/41 92/60/41 93/61/42
f 94/62/42 93/61/42 92/60/41
f 93/61/42 94/62/42 95/63/43
f 96/64/43 95/63/43 94/62/42
f 90/58/40 97/65/41 98/60/41
f 97/65/41 90/58/40 99/66/40
f 100/56/40 99/66/40 90/58/40
f 99/66/40 100/56/40 101/67/39
f 102/54/39 101/67/39 100/56/40
f 101/67/39 102/54/39 103/68/38
f 104/52/38 103/68/38 102/54/39
f 103/68/38 104/52/38 105/69/37
f 106/50/37 105/69/37 104/52/38
f 107/48/36 108/70/36 106/50/37
f 105/69/37 106/50/37 108/70/36
f 108/70/36 109/71/44 105/69/37
f 110/72/45 111/73/45 109/71/44
f 112/74/46 109/71/44 111/73/45
f 112/74/46 105/69/37 109/71/44
f 105/69/37 112/74/46 103/68/38
f 111/73/45 113/75/47 112/74/46
f 114/76/47 112/74/46 113/75/47
f 114/76/47 103/68/38 112/74/46
f 103/68/38 114/76/47 101/67/39
f 113/75/47 115/77/48 114/76/47
f 116/78/49 114/76/47 115/77/48
f 116/78/49 101/67/39 114/76/47
f 101/67/39 116/78/49 99/66/40
f 115/77/48 117/79/50 116/78/49
f 118/80/51 116/78/49 117/79/50
f 118/80/51 99/66/40 116/78/49
f 99/66/40 118/80/51 97/65/41
f 117/79/50 119/81/52 118/80/51
f 120/82/53 118/80/51 119/81/52
f 120/82/53 97/65/41 118/80/51
f 119/81/52 121/83/54 120/82/53
f 122/84/55 120/82/53 121/83/54
f 121/83/54 123/85/56 122/84/55
f 124/86/57 122/84/55 123/85/56
f 123/85/56 125/87/58 124/86/57
f 126/88/59 124/86/57 125/87/58
f 126/88/59 127/89/60 124/86/57
f 128/90/61 124/86/57 127/89/60
f 124/86/57 128/90/61 122/84/55
f 127/89/60 129/64/43 128/90/61
f 130/62/43 128/90/61 129/64/43
f 128/90/61 130/62/43 131/91/42
f 131/91/42 122/84/55 128/90/61
f 122/84/55 131/91/42 120/82/53
f 97/65/41 120/82/53 131/91/42
f 131/91/42 98/60/41 97/65/41
f 98/60/41 131/91/42 130/62/43
f 132/92/62 133/93/62 134/94/62
f 135/48/43 134/94/62 136/50/43
f 137/95/43 136/50/43 134/94/62
f 137/95/43 134/94/62 133/93/62
f 133/93/62 138/96/63 137/95/43
f 136/50/43 137/95/43 139/52/42
f 140/97/42 139/52/42 137/95/43
f 140/97/42 137/95/43 138/96/63
f 138/96/63 141/98/64 140/97/42
f 139/52/42 140/97/42 142/54/41
f 143/99/41 142/54/41 140/97/42
f 143/99/41 140/97/42 141/98/64
f 141/98/64 144/100/65 143/99/41
f 142/54/41 143/99/41 145/56/40
f 146/101/40 145/56/40 143/99/41
f 146/101/40 143/99/41 144/100/65
f 144/100/65 147/102/66 146/101/40
f 145/56/40 146/101/40 148/58/39
f 149/103/39 148/58/39 146/101/40
f 149/103/39 146/101/40 147/102/66
f 147/102/66 150/104/67 149/103/39
f 148/58/39 149/103/39 151/60/38
f 152/105/38 151/60/38 149/103/39
f 152/105/38 149/103/39 150/104/67
f 150/104/67 153/106/68 152/105/38
f 151/60/38 152/105/38 154/62/37
f 155/107/37 154/62/37 152/105/38
f 155/107/37 152/105/38 153/106/68
f 153/106/68 156/108/69 155/107/37
f 157/109/70 155/107/37 156/108/69
f 157/109/70 158/64/36 155/107/37
f 154/62/37 155/107/37 158/64/36
f 159/110/71 160/111/72 161/112/72
f 160/111/72 162/113/73 161/112/72
f 162/113/73 163/114/74 161/112/72
f 163/114/74 164/115/75 161/112/72
f 164/115/75 165/116/76 161/112/72
f 165/116/76 166/117/77 161/112/72
f 166/117/77 167/118/78 161/112/72
f 159/110/71 161/112/72 167/118/78
f 168/119/79 169/120/79 170/121/79
f 171/122/80 170/121/79 169/120/79
f 170/121/79 172/123/81 168/119/79
f 173/124/82 168/119/79 172/123/81
f 172/123/81 174/125/83 173/124/82
f 175/126/84 173/124/82 174/125/83
f 174/125/83 176/127/85 175/126/84
f 177/128/86 175/126/84 176/127/85
f 176/127/85 178/129/87 177/128/86
f 179/130/88 177/128/86 178/129/87
f 178/129/87 180/131/89 179/130/88
f 181/132/90 179/130/88 180/131/89
f 180/131/89 182/133/91 181/132/90
f 183/134/92 181/132/90 182/133/91
f 182/133/91 171/122/80 183/134/92
f 169/120/79 183/134/92 171/122/80
