# Exported by ZModeler 3.1.1 (Build 1106) with WavefrontOBJ filter (Build 66)
# 

mtllib pole.mtl

v 55.278 8.21494 -32.016
v 55.1889 8.21494 -32.1051
v 55.1889 8.31444 -32.016
v 55.0998 8.21494 -32.016
v 55.1889 8.31444 -32.016
v 55.1889 8.21494 -31.9268
v 55.1889 8.31444 -32.016
v 55.1889 8.31444 -32.016
v 55.1889 6.36909 -32.3723
v 55.1889 6.41364 -32.3634
v 55.5452 6.36909 -32.016
v 55.5363 6.41364 -32.016
v 55.1889 6.41364 -32.3634
v 55.1889 6.41364 -32.016
v 55.1889 6.41364 -31.6685
v 54.8414 6.41364 -32.016
v 55.1889 6.36909 -32.3723
v 54.8414 6.41364 -32.016
v 54.8325 6.36909 -32.016
v 55.1889 6.36909 -31.6595
v 55.5363 6.41364 -32.016
v 55.5452 6.36909 -32.016
v 55.1889 6.36909 -31.6595
v 55.1889 6.41364 -31.6685
v 54.8325 6.36909 -32.016
v 54.8414 6.41364 -32.016
v 55.1889 8.21494 -31.9268
v 55.0998 8.21494 -32.016
v 55.1889 6.41364 -31.9268
v 55.0998 6.41364 -32.016
v 55.1889 8.21494 -32.1051
v 55.1889 6.41364 -32.1051
v 55.278 8.21494 -32.016
v 55.278 6.41364 -32.016
v 55.1889 8.21494 -31.9268
v 55.1889 6.41364 -31.9268
v 55.1889 6.36909 -32.016
v 55.1889 6.36909 -32.3723
v 55.5452 6.36909 -32.016
v 54.8325 6.36909 -32.016
v 55.1889 6.36909 -31.6595


vn 0.597401 0.534998 -0.597401
vn -0.597401 0.534998 -0.597401
vn -0.597401 0.534998 0.597401
vn 0.597401 0.534998 0.597401
vn 0.700149 0.139876 -0.700161
vn 0.700142 0.14007 -0.700129
vn -0 1 0
vn -0.700162 0.139874 -0.700149
vn -0.70013 0.140068 -0.700142
vn 0.700142 0.140068 0.70013
vn 0.700142 0.14007 0.70013
vn -0.700142 0.140068 0.70013
vn -0.700142 0.14007 0.700129
vn -0.707107 0 0.707107
vn -0.707107 0 -0.707107
vn 0.707107 0 -0.707107
vn 0.707107 0 0.707107
vn -0 -1 0


vt 0.624512 -0.113342
vt 0.502441 -0.078186
vt 0.522949 -0.10376
vt 0.377441 -0.113403
vt 0.47876 -0.10376
vt 0.499268 -0.14856
vt 0.47876 -0.122986
vt 0.522949 -0.122986
vt 0.714844 -0.752441
vt 0.667969 -0.759766
vt 0.967773 -0.876465
vt 0.914551 -0.880859
vt 0.5 -0.777344
vt 0.5 -0.880859
vt 0.5 -0.984375
vt 0.0856323 -0.880859
vt 0.482666 -0.76416
vt 0.0157318 -0.838867
vt -0.0146561 -0.827148
vt 0.51709 -0.998047
vt 0.984375 -0.922852
vt 1.01465 -0.93457
vt 0.439697 -0.992676
vt 0.473145 -0.981445
vt 0.0319519 -0.897461
vt 0.0761108 -0.888672
vt 1.0127 -0.00235748
vt 0.751953 -0.0022316
vt 1 -0.748047
vt 0.749023 -0.748047
vt 0.504395 -0.00258827
vt 0.499756 -0.748047
vt 0.253906 -0.00242043
vt 0.250488 -0.748047
vt -0.0044632 -0.00266266
vt 6.181e-005 -0.748047
vt 0.5 -0.773926
vt 0.928711 -0.880859
vt 0.0714722 -0.880859
vt 0.5 -0.988281


usemtl pole_hard_a_01_d

f 1/1/1 2/2/1 3/3/1
f 2/2/1 4/4/2 5/5/2
f 4/4/2 6/6/3 7/7/3
f 6/6/3 1/1/1 8/8/4
f 9/9/5 10/10/5 11/11/5
f 12/12/6 11/11/5 10/10/5
f 13/13/7 14/14/7 12/12/6
f 12/12/6 14/14/7 15/15/7
f 15/15/7 14/14/7 16/16/7
f 16/16/7 14/14/7 13/13/7
f 13/13/7 17/17/8 18/18/8
f 19/19/9 18/18/8 17/17/8
f 15/15/7 20/20/10 21/21/10
f 22/22/11 21/21/10 20/20/10
f 23/23/12 24/24/12 25/25/12
f 26/26/13 25/25/12 24/24/12
f 27/27/14 28/28/14 29/29/14
f 30/30/14 29/29/14 28/28/14
f 28/28/14 31/31/15 30/30/14
f 32/32/15 30/30/14 31/31/15
f 31/31/15 33/33/16 32/32/15
f 34/34/16 32/32/15 33/33/16
f 33/33/16 35/35/17 34/34/16
f 36/36/17 34/34/16 35/35/17
f 37/14/18 38/37/18 39/38/18
f 37/14/18 40/39/18 38/37/18
f 37/14/18 41/40/18 40/39/18
f 37/14/18 39/38/18 41/40/18
