# 3ds Max Wavefront OBJ Exporter v0.97b - (c)2007 guruware
# File Created: 07.07.2020 22:22:50

mtllib piste.mtl

#
# object Spring009
#

v  1818.6180 150.7231 -990.1834
v  1803.4041 153.4674 -1061.1409
v  1769.9332 153.4674 -1047.2769
v  1782.3694 147.6963 -996.6533
v  1769.3649 136.7045 -1048.6490
v  1782.1528 131.2997 -997.8635
v  1802.8357 136.7045 -1062.5131
v  1818.6565 133.9585 -995.0992
v  1760.8845 159.7008 -1125.2974
v  1735.2671 159.7008 -1099.6799
v  1734.2168 142.9380 -1100.7302
v  1759.8342 142.9380 -1126.3477
v  1697.0499 165.9343 -1168.2988
v  1683.1859 165.9343 -1134.8280
v  1681.8137 149.1714 -1135.3964
v  1695.6777 149.1714 -1168.8672
v  1621.6187 172.1677 -1183.5984
v  1621.6187 172.1677 -1147.3699
v  1620.1333 155.4048 -1147.3699
v  1620.1333 155.4048 -1183.5984
v  1546.0742 178.4011 -1168.8672
v  1559.9382 178.4011 -1135.3964
v  1558.5660 161.6383 -1134.8280
v  1544.7020 161.6383 -1168.2988
v  1481.9177 184.6346 -1126.3477
v  1507.5352 184.6346 -1100.7302
v  1506.4849 167.8717 -1099.6799
v  1480.8674 167.8717 -1125.2974
v  1438.9163 190.8680 -1062.5131
v  1472.3871 190.8680 -1048.6490
v  1471.8187 174.1052 -1047.2769
v  1438.3479 174.1052 -1061.1409
v  1423.6167 197.1014 -987.0817
v  1459.8452 197.1014 -987.0817
v  1459.8452 180.3386 -985.5964
v  1423.6167 180.3386 -985.5964
v  1438.3479 203.3349 -911.5374
v  1471.8187 203.3349 -925.4014
v  1472.3871 186.5720 -924.0292
v  1438.9163 186.5720 -910.1651
v  1480.8674 209.5683 -847.3808
v  1506.4849 209.5683 -872.9982
v  1507.5352 192.8055 -871.9480
v  1481.9177 192.8055 -846.3306
v  1544.7020 215.8017 -804.3794
v  1558.5660 215.8017 -837.8502
v  1559.9384 199.0389 -837.2819
v  1546.0742 199.0389 -803.8110
v  1620.1333 222.0352 -789.0798
v  1620.1333 222.0352 -825.3083
v  1621.6187 205.2723 -825.3083
v  1621.6187 205.2723 -789.0798
v  1695.6777 228.2686 -803.8111
v  1681.8137 228.2686 -837.2819
v  1683.1859 211.5058 -837.8503
v  1697.0500 211.5058 -804.3795
v  1759.8342 234.5020 -846.3306
v  1734.2168 234.5020 -871.9481
v  1735.2671 217.7392 -872.9983
v  1760.8845 217.7392 -847.3809
v  1802.8357 240.7355 -910.1651
v  1769.3649 240.7355 -924.0292
v  1769.9332 223.9726 -925.4014
v  1803.4041 223.9726 -911.5374
v  1818.1353 246.9689 -985.5965
v  1781.9067 246.9689 -985.5965
v  1781.9067 230.2061 -987.0818
v  1818.1353 230.2061 -987.0818
v  1818.2699 78.0820 -986.3506
v  1813.2228 82.1216 -1015.9606
v  1779.7520 82.1216 -1002.0966
v  1782.0414 78.0820 -986.3506
v  1778.5859 65.5712 -1004.9116
v  1782.3988 61.1940 -988.7900
v  1812.0568 65.5712 -1018.7756
v  1818.2699 61.4221 -988.5790
v  1796.6658 86.4987 -1041.8098
v  1771.0483 86.4987 -1016.1923
v  1768.8938 69.9484 -1018.3469
v  1794.5112 69.9484 -1043.9642
v  1771.4772 90.8759 -1059.3552
v  1757.6130 90.8759 -1025.8844
v  1754.7981 74.3255 -1027.0504
v  1768.6621 74.3255 -1060.5212
v  1741.4915 95.2531 -1065.9258
v  1741.4915 95.2531 -1029.6973
v  1738.4446 78.7027 -1029.6973
v  1738.4446 78.7027 -1065.9258
v  1711.2739 99.6303 -1060.5212
v  1725.1379 99.6303 -1027.0504
v  1722.3230 83.0799 -1025.8844
v  1708.4589 83.0799 -1059.3552
v  1685.4248 104.0075 -1043.9642
v  1711.0421 104.0075 -1018.3469
v  1708.8877 87.4571 -1016.1923
v  1683.2703 87.4571 -1041.8098
v  1667.8793 108.3847 -1018.7756
v  1701.3501 108.3847 -1004.9116
v  1700.1841 91.8343 -1002.0966
v  1666.7133 91.8343 -1015.9606
v  1661.3087 112.7618 -988.7899
v  1697.5372 112.7618 -988.7899
v  1697.5372 96.2115 -985.7430
v  1661.3087 96.2115 -985.7430
v  1666.7133 117.1390 -958.5724
v  1700.1841 117.1390 -972.4364
v  1701.3501 100.5886 -969.6214
v  1667.8793 100.5886 -955.7574
v  1683.2703 121.5162 -932.7232
v  1708.8877 121.5162 -958.3406
v  1711.0422 104.9658 -956.1861
v  1685.4248 104.9658 -930.5687
v  1708.4590 125.8934 -915.1777
v  1722.3230 125.8934 -948.6486
v  1725.1379 109.3430 -947.4825
v  1711.2739 109.3430 -914.0117
v  1738.4446 130.2706 -908.6072
v  1738.4446 130.2706 -944.8357
v  1741.4915 113.7202 -944.8357
v  1741.4915 113.7202 -908.6072
v  1768.6621 134.6478 -914.0117
v  1754.7981 134.6478 -947.4825
v  1757.6130 118.0974 -948.6486
v  1771.4772 118.0974 -915.1777
v  1794.5114 139.0249 -930.5687
v  1768.8939 139.0249 -956.1862
v  1771.0483 122.4746 -958.3406
v  1796.6658 122.4746 -932.7232
v  1812.0568 143.4021 -955.7574
v  1778.5859 143.4021 -969.6214
v  1779.7520 126.8517 -972.4364
v  1813.2228 126.8517 -958.5724
v  1817.9125 8.3847 -986.9583
v  1781.6840 8.3847 -986.9583
v  1781.6840 -8.3847 -988.3680
v  1817.9125 -8.3847 -988.3680
v  1806.7101 12.7619 -1044.6859
v  1773.2393 12.7619 -1030.8219
v  1772.6998 -4.0075 -1032.1243
v  1806.1707 -4.0075 -1045.9883
v  1774.2690 17.1391 -1093.7323
v  1748.6517 17.1391 -1068.1149
v  1747.6549 0.3697 -1069.1117
v  1773.2723 0.3697 -1094.7291
v  1725.5283 21.5162 -1126.6306
v  1711.6642 21.5162 -1093.1599
v  1710.3618 4.7469 -1093.6993
v  1724.2258 4.7469 -1127.1702
v  1667.9080 25.8934 -1138.3724
v  1667.9080 25.8934 -1102.1439
v  1666.4983 9.1241 -1102.1439
v  1666.4983 9.1241 -1138.3724
v  1610.1803 30.2706 -1127.1702
v  1624.0444 30.2706 -1093.6993
v  1622.7421 13.5012 -1093.1599
v  1608.8779 13.5012 -1126.6306
v  1561.1339 34.6478 -1094.7291
v  1586.7513 34.6478 -1069.1117
v  1585.7546 17.8784 -1068.1149
v  1560.1372 17.8784 -1093.7323
v  1528.2356 39.0250 -1045.9883
v  1561.7064 39.0250 -1032.1243
v  1561.1669 22.2556 -1030.8219
v  1527.6962 22.2556 -1044.6859
v  1516.4938 43.4022 -988.3680
v  1552.7223 43.4022 -988.3680
v  1552.7223 26.6328 -986.9583
v  1516.4938 26.6328 -986.9583
v  1527.6962 47.7793 -930.6404
v  1561.1670 47.7793 -944.5045
v  1561.7064 31.0100 -943.2020
v  1528.2356 31.0100 -929.3380
v  1560.1372 52.1565 -881.5939
v  1585.7546 52.1565 -907.2114
v  1586.7513 35.3872 -906.2146
v  1561.1340 35.3872 -880.5972
v  1608.8781 56.5337 -848.6956
v  1622.7421 56.5337 -882.1664
v  1624.0444 39.7643 -881.6270
v  1610.1804 39.7643 -848.1561
v  1666.4983 60.9109 -836.9539
v  1666.4983 60.9109 -873.1824
v  1667.9080 44.1415 -873.1824
v  1667.9080 44.1415 -836.9539
v  1724.2260 65.2881 -848.1562
v  1710.3618 65.2881 -881.6270
v  1711.6643 48.5187 -882.1664
v  1725.5283 48.5187 -848.6956
v  1773.2723 69.6653 -880.5972
v  1747.6549 69.6653 -906.2146
v  1748.6517 52.8959 -907.2114
v  1774.2692 52.8959 -881.5940
v  1806.1707 74.0424 -929.3380
v  1772.6998 74.0424 -943.2020
v  1773.2394 57.2731 -944.5045
v  1806.7101 57.2731 -930.6404
v  1781.6840 61.6503 -988.3680
# 197 vertices

vn 0.6957 0.7115 0.0984
vn 0.7068 0.6614 -0.2511
vn -0.5765 0.7429 0.3402
vn -0.6920 0.7089 0.1368
vn -0.6363 -0.7453 0.1993
vn -0.6429 -0.7634 -0.0615
vn 0.6610 -0.6712 -0.3356
vn 0.7861 -0.6057 -0.1233
vn 0.5687 0.6633 -0.4864
vn -0.4126 0.7499 0.5171
vn -0.5171 -0.7499 0.4126
vn 0.4864 -0.6633 -0.5687
vn 0.3392 0.6633 -0.6670
vn -0.1834 0.7499 0.6356
vn -0.3198 -0.7499 0.5791
vn 0.2318 -0.6633 -0.7115
vn 0.0581 0.6633 -0.7461
vn 0.0738 0.7499 0.6574
vn -0.0738 -0.7499 0.6574
vn -0.0581 -0.6633 -0.7461
vn -0.2318 0.6633 -0.7115
vn 0.3198 0.7499 0.5791
vn 0.1834 -0.7499 0.6356
vn -0.3392 -0.6633 -0.6670
vn -0.4864 0.6633 -0.5687
vn 0.5171 0.7499 0.4126
vn 0.4126 -0.7499 0.5171
vn -0.5687 -0.6633 -0.4864
vn -0.6670 0.6633 -0.3392
vn 0.6356 0.7499 0.1834
vn 0.5791 -0.7499 0.3198
vn -0.7115 -0.6633 -0.2318
vn -0.7461 0.6633 -0.0581
vn 0.6574 0.7499 -0.0738
vn 0.6574 -0.7499 0.0738
vn -0.7461 -0.6633 0.0581
vn -0.7115 0.6633 0.2318
vn 0.5791 0.7499 -0.3198
vn 0.6356 -0.7499 -0.1834
vn -0.6670 -0.6633 0.3392
vn -0.5687 0.6633 0.4864
vn 0.4126 0.7499 -0.5171
vn 0.5171 -0.7499 -0.4126
vn -0.4864 -0.6633 0.5687
vn -0.3392 0.6633 0.6670
vn 0.1834 0.7499 -0.6356
vn 0.3198 -0.7499 -0.5791
vn -0.2318 -0.6633 0.7115
vn -0.0581 0.6633 0.7461
vn -0.0738 0.7499 -0.6574
vn 0.0738 -0.7499 -0.6574
vn 0.0581 -0.6633 0.7461
vn 0.2318 0.6633 0.7115
vn -0.3198 0.7499 -0.5791
vn -0.1834 -0.7499 -0.6356
vn 0.3392 -0.6633 0.6670
vn 0.4864 0.6633 0.5687
vn -0.5171 0.7499 -0.4126
vn -0.4126 -0.7499 -0.5171
vn 0.5687 -0.6633 0.4864
vn 0.6670 0.6633 0.3392
vn -0.6356 0.7499 -0.1834
vn -0.5791 -0.7499 -0.3198
vn 0.7115 -0.6633 0.2318
vn 0.6377 0.6098 -0.4706
vn -0.5114 0.6454 -0.5674
vn -0.5152 -0.5262 -0.6765
vn 0.6347 -0.5214 -0.5704
vn 0.7515 0.6540 0.0864
vn 0.7342 0.6545 -0.1806
vn -0.5422 0.7333 0.4103
vn -0.6801 0.7259 0.1025
vn -0.6778 -0.7302 0.0861
vn -0.6095 -0.7897 -0.0703
vn 0.6486 -0.6571 -0.3840
vn 0.7413 -0.6669 -0.0749
vn 0.6076 0.6564 -0.4472
vn -0.3389 0.7302 0.5933
vn -0.5933 -0.7302 0.3389
vn 0.4472 -0.6564 -0.6076
vn 0.3902 0.6564 -0.6457
vn -0.0861 0.7302 0.6778
vn -0.4184 -0.7302 0.5402
vn 0.1807 -0.6564 -0.7324
vn 0.1134 0.6564 -0.7458
vn 0.1799 0.7302 0.6592
vn -0.1799 -0.7302 0.6592
vn -0.1134 -0.6564 -0.7458
vn -0.1807 0.6564 -0.7324
vn 0.4184 0.7302 0.5402
vn 0.0861 -0.7302 0.6778
vn -0.3902 -0.6564 -0.6457
vn -0.4472 0.6564 -0.6076
vn 0.5933 0.7302 0.3389
vn 0.3389 -0.7302 0.5933
vn -0.6076 -0.6564 -0.4472
vn -0.6457 0.6564 -0.3902
vn 0.6778 0.7302 0.0861
vn 0.5402 -0.7302 0.4184
vn -0.7324 -0.6564 -0.1807
vn -0.7458 0.6564 -0.1134
vn 0.6592 0.7302 -0.1799
vn 0.6592 -0.7302 0.1799
vn -0.7458 -0.6564 0.1134
vn -0.7324 0.6564 0.1807
vn 0.5402 0.7302 -0.4184
vn 0.6778 -0.7302 -0.0861
vn -0.6457 -0.6564 0.3902
vn -0.6076 0.6564 0.4472
vn 0.3389 0.7302 -0.5933
vn 0.5933 -0.7302 -0.3389
vn -0.4472 -0.6564 0.6076
vn -0.3902 0.6564 0.6457
vn 0.0861 0.7302 -0.6778
vn 0.4184 -0.7302 -0.5402
vn -0.1807 -0.6564 0.7324
vn -0.1134 0.6564 0.7458
vn -0.1799 0.7302 -0.6592
vn 0.1799 -0.7302 -0.6592
vn 0.1134 -0.6564 0.7458
vn 0.1807 0.6564 0.7324
vn -0.4184 0.7302 -0.5402
vn -0.0861 -0.7302 -0.6778
vn 0.3902 -0.6564 0.6457
vn 0.4472 0.6564 0.6076
vn -0.5933 0.7302 -0.3389
vn -0.3389 -0.7302 -0.5933
vn 0.6076 -0.6564 0.4472
vn 0.6508 0.6447 0.4010
vn -0.6515 0.7543 -0.0812
vn -0.5611 -0.7429 -0.3651
vn 0.7388 -0.6554 0.1569
vn 0.6343 0.5246 0.5679
vn -0.5158 0.5281 0.6746
vn -0.5108 -0.6440 0.5695
vn 0.6381 -0.6070 0.4736
vn 0.7102 0.6636 -0.2351
vn -0.5797 0.7501 0.3183
vn -0.6350 -0.7501 0.1849
vn 0.6684 -0.6636 -0.3360
vn 0.5662 0.6636 -0.4890
vn -0.4138 0.7501 0.5159
vn -0.5159 -0.7501 0.4138
vn 0.4890 -0.6636 -0.5662
vn 0.3360 0.6636 -0.6684
vn -0.1849 0.7501 0.6350
vn -0.3183 -0.7501 0.5797
vn 0.2351 -0.6636 -0.7102
vn 0.0546 0.6636 -0.7461
vn 0.0722 0.7501 0.6574
vn -0.0722 -0.7501 0.6574
vn -0.0546 -0.6636 -0.7461
vn -0.2351 0.6636 -0.7102
vn 0.3183 0.7501 0.5797
vn 0.1849 -0.7501 0.6350
vn -0.3360 -0.6636 -0.6684
vn -0.4890 0.6636 -0.5662
vn 0.5159 0.7501 0.4138
vn 0.4138 -0.7501 0.5159
vn -0.5662 -0.6636 -0.4890
vn -0.6684 0.6636 -0.3360
vn 0.6350 0.7501 0.1849
vn 0.5797 -0.7501 0.3183
vn -0.7102 -0.6636 -0.2351
vn -0.7461 0.6636 -0.0546
vn 0.6574 0.7501 -0.0722
vn 0.6574 -0.7501 0.0722
vn -0.7461 -0.6636 0.0546
vn -0.7102 0.6636 0.2351
vn 0.5797 0.7501 -0.3183
vn 0.6350 -0.7501 -0.1849
vn -0.6684 -0.6636 0.3360
vn -0.5662 0.6636 0.4890
vn 0.4138 0.7501 -0.5159
vn 0.5159 -0.7501 -0.4138
vn -0.4890 -0.6636 0.5662
vn -0.3360 0.6636 0.6684
vn 0.1849 0.7501 -0.6350
vn 0.3183 -0.7501 -0.5797
vn -0.2351 -0.6636 0.7102
vn -0.0546 0.6636 0.7461
vn -0.0722 0.7501 -0.6574
vn 0.0722 -0.7501 -0.6574
vn 0.0546 -0.6636 0.7461
vn 0.2351 0.6636 0.7102
vn -0.3183 0.7501 -0.5797
vn -0.1849 -0.7501 -0.6350
vn 0.3360 -0.6636 0.6684
vn 0.4890 0.6636 0.5662
vn -0.5159 0.7501 -0.4138
vn -0.4138 -0.7501 -0.5159
vn 0.5662 -0.6636 0.4890
vn 0.6667 0.6649 0.3369
vn -0.6332 0.7500 -0.1910
vn -0.5797 -0.7501 -0.3183
vn 0.7090 -0.6639 0.2380
vn -0.6596 -0.7247 -0.1993
# 197 vertex normals

vt 0.0000 0.0000 0.5000
vt 0.0625 0.0000 0.5000
vt 0.0625 0.2500 0.5000
vt 0.0000 0.2500 0.5000
vt 0.0625 0.5000 0.5000
vt 0.0000 0.5000 0.5000
vt 0.0625 0.7500 0.5000
vt 0.0000 0.7500 0.5000
vt 0.0625 0.9990 0.0000
vt 0.0000 0.9990 0.0000
vt 0.1250 0.0000 0.5000
vt 0.1250 0.2500 0.5000
vt 0.1250 0.5000 0.5000
vt 0.1250 0.7500 0.5000
vt 0.1250 0.9990 0.0000
vt 0.1875 0.0000 0.5000
vt 0.1875 0.2500 0.5000
vt 0.1875 0.5000 0.5000
vt 0.1875 0.7500 0.5000
vt 0.1875 0.9990 0.0000
vt 0.2500 0.0000 0.5000
vt 0.2500 0.2500 0.5000
vt 0.2500 0.5000 0.5000
vt 0.2500 0.7500 0.5000
vt 0.2500 0.9990 0.0000
vt 0.3125 0.0000 0.5000
vt 0.3125 0.2500 0.5000
vt 0.3125 0.5000 0.5000
vt 0.3125 0.7500 0.5000
vt 0.3125 0.9990 0.0000
vt 0.3750 0.0000 0.5000
vt 0.3750 0.2500 0.5000
vt 0.3750 0.5000 0.5000
vt 0.3750 0.7500 0.5000
vt 0.3750 0.9990 0.0000
vt 0.4375 0.0000 0.5000
vt 0.4375 0.2500 0.5000
vt 0.4375 0.5000 0.5000
vt 0.4375 0.7500 0.5000
vt 0.4375 0.9990 0.0000
vt 0.5000 0.0000 0.5000
vt 0.5000 0.2500 0.5000
vt 0.5000 0.5000 0.5000
vt 0.5000 0.7500 0.5000
vt 0.5000 0.9990 0.0000
vt 0.5625 0.0000 0.5000
vt 0.5625 0.2500 0.5000
vt 0.5625 0.5000 0.5000
vt 0.5625 0.7500 0.5000
vt 0.5625 0.9990 0.0000
vt 0.6250 0.0000 0.5000
vt 0.6250 0.2500 0.5000
vt 0.6250 0.5000 0.5000
vt 0.6250 0.7500 0.5000
vt 0.6250 0.9990 0.0000
vt 0.6875 0.0000 0.5000
vt 0.6875 0.2500 0.5000
vt 0.6875 0.5000 0.5000
vt 0.6875 0.7500 0.5000
vt 0.6875 0.9990 0.0000
vt 0.7500 0.0000 0.5000
vt 0.7500 0.2500 0.5000
vt 0.7500 0.5000 0.5000
vt 0.7500 0.7500 0.5000
vt 0.7500 0.9990 0.0000
vt 0.8125 0.0000 0.5000
vt 0.8125 0.2500 0.5000
vt 0.8125 0.5000 0.5000
vt 0.8125 0.7500 0.5000
vt 0.8125 0.9990 0.0000
vt 0.8750 0.0000 0.5000
vt 0.8750 0.2500 0.5000
vt 0.8750 0.5000 0.5000
vt 0.8750 0.7500 0.5000
vt 0.8750 0.9990 0.0000
vt 0.9375 0.0000 0.5000
vt 0.9375 0.2500 0.5000
vt 0.9375 0.5000 0.5000
vt 0.9375 0.7500 0.5000
vt 0.9375 0.9990 0.0000
vt 1.0000 0.0000 0.5000
vt 1.0000 0.2500 0.5000
vt 1.0000 0.5000 0.5000
vt 1.0000 0.7500 0.5000
vt 1.0000 0.9990 0.0000
vt 0.0000 -0.2500 -0.5000
# 86 texture coords

o Spring009
g Spring009
usemtl wire_008061138
s 2
f 1/1/1 2/2/2 3/3/3 4/4/4 
f 4/4/4 3/3/3 5/5/5 6/6/6 
f 6/6/6 5/5/5 7/7/7 8/8/8 
f 8/8/8 7/7/7 2/9/2 1/10/1 
f 2/2/2 9/11/9 10/12/10 3/3/3 
f 3/3/3 10/12/10 11/13/11 5/5/5 
f 5/5/5 11/13/11 12/14/12 7/7/7 
f 7/7/7 12/14/12 9/15/9 2/9/2 
f 9/11/9 13/16/13 14/17/14 10/12/10 
f 10/12/10 14/17/14 15/18/15 11/13/11 
f 11/13/11 15/18/15 16/19/16 12/14/12 
f 12/14/12 16/19/16 13/20/13 9/15/9 
f 13/16/13 17/21/17 18/22/18 14/17/14 
f 14/17/14 18/22/18 19/23/19 15/18/15 
f 15/18/15 19/23/19 20/24/20 16/19/16 
f 16/19/16 20/24/20 17/25/17 13/20/13 
f 17/21/17 21/26/21 22/27/22 18/22/18 
f 18/22/18 22/27/22 23/28/23 19/23/19 
f 19/23/19 23/28/23 24/29/24 20/24/20 
f 20/24/20 24/29/24 21/30/21 17/25/17 
f 21/26/21 25/31/25 26/32/26 22/27/22 
f 22/27/22 26/32/26 27/33/27 23/28/23 
f 23/28/23 27/33/27 28/34/28 24/29/24 
f 24/29/24 28/34/28 25/35/25 21/30/21 
f 25/31/25 29/36/29 30/37/30 26/32/26 
f 26/32/26 30/37/30 31/38/31 27/33/27 
f 27/33/27 31/38/31 32/39/32 28/34/28 
f 28/34/28 32/39/32 29/40/29 25/35/25 
f 29/36/29 33/41/33 34/42/34 30/37/30 
f 30/37/30 34/42/34 35/43/35 31/38/31 
f 31/38/31 35/43/35 36/44/36 32/39/32 
f 32/39/32 36/44/36 33/45/33 29/40/29 
f 33/41/33 37/46/37 38/47/38 34/42/34 
f 34/42/34 38/47/38 39/48/39 35/43/35 
f 35/43/35 39/48/39 40/49/40 36/44/36 
f 36/44/36 40/49/40 37/50/37 33/45/33 
f 37/46/37 41/51/41 42/52/42 38/47/38 
f 38/47/38 42/52/42 43/53/43 39/48/39 
f 39/48/39 43/53/43 44/54/44 40/49/40 
f 40/49/40 44/54/44 41/55/41 37/50/37 
f 41/51/41 45/56/45 46/57/46 42/52/42 
f 42/52/42 46/57/46 47/58/47 43/53/43 
f 43/53/43 47/58/47 48/59/48 44/54/44 
f 44/54/44 48/59/48 45/60/45 41/55/41 
f 45/56/45 49/61/49 50/62/50 46/57/46 
f 46/57/46 50/62/50 51/63/51 47/58/47 
f 47/58/47 51/63/51 52/64/52 48/59/48 
f 48/59/48 52/64/52 49/65/49 45/60/45 
f 49/61/49 53/66/53 54/67/54 50/62/50 
f 50/62/50 54/67/54 55/68/55 51/63/51 
f 51/63/51 55/68/55 56/69/56 52/64/52 
f 52/64/52 56/69/56 53/70/53 49/65/49 
f 53/66/53 57/71/57 58/72/58 54/67/54 
f 54/67/54 58/72/58 59/73/59 55/68/55 
f 55/68/55 59/73/59 60/74/60 56/69/56 
f 56/69/56 60/74/60 57/75/57 53/70/53 
f 57/71/57 61/76/61 62/77/62 58/72/58 
f 58/72/58 62/77/62 63/78/63 59/73/59 
f 59/73/59 63/78/63 64/79/64 60/74/60 
f 60/74/60 64/79/64 61/80/61 57/75/57 
f 61/76/61 65/81/65 66/82/66 62/77/62 
f 62/77/62 66/82/66 67/83/67 63/78/63 
f 63/78/63 67/83/67 68/84/68 64/79/64 
f 64/79/64 68/84/68 65/85/65 61/80/61 
s 1
f 66/82/66 65/81/65 68/84/68 67/83/67 
s 2
f 69/1/69 70/2/70 71/3/71 72/4/72 
f 72/4/72 71/3/71 73/5/73 74/6/74 
f 74/6/74 73/5/73 75/7/75 76/8/76 
f 76/8/76 75/7/75 70/9/70 69/10/69 
f 70/2/70 77/11/77 78/12/78 71/3/71 
f 71/3/71 78/12/78 79/13/79 73/5/73 
f 73/5/73 79/13/79 80/14/80 75/7/75 
f 75/7/75 80/14/80 77/15/77 70/9/70 
f 77/11/77 81/16/81 82/17/82 78/12/78 
f 78/12/78 82/17/82 83/18/83 79/13/79 
f 79/13/79 83/18/83 84/19/84 80/14/80 
f 80/14/80 84/19/84 81/20/81 77/15/77 
f 81/16/81 85/21/85 86/22/86 82/17/82 
f 82/17/82 86/22/86 87/23/87 83/18/83 
f 83/18/83 87/23/87 88/24/88 84/19/84 
f 84/19/84 88/24/88 85/25/85 81/20/81 
f 85/21/85 89/26/89 90/27/90 86/22/86 
f 86/22/86 90/27/90 91/28/91 87/23/87 
f 87/23/87 91/28/91 92/29/92 88/24/88 
f 88/24/88 92/29/92 89/30/89 85/25/85 
f 89/26/89 93/31/93 94/32/94 90/27/90 
f 90/27/90 94/32/94 95/33/95 91/28/91 
f 91/28/91 95/33/95 96/34/96 92/29/92 
f 92/29/92 96/34/96 93/35/93 89/30/89 
f 93/31/93 97/36/97 98/37/98 94/32/94 
f 94/32/94 98/37/98 99/38/99 95/33/95 
f 95/33/95 99/38/99 100/39/100 96/34/96 
f 96/34/96 100/39/100 97/40/97 93/35/93 
f 97/36/97 101/41/101 102/42/102 98/37/98 
f 98/37/98 102/42/102 103/43/103 99/38/99 
f 99/38/99 103/43/103 104/44/104 100/39/100 
f 100/39/100 104/44/104 101/45/101 97/40/97 
f 101/41/101 105/46/105 106/47/106 102/42/102 
f 102/42/102 106/47/106 107/48/107 103/43/103 
f 103/43/103 107/48/107 108/49/108 104/44/104 
f 104/44/104 108/49/108 105/50/105 101/45/101 
f 105/46/105 109/51/109 110/52/110 106/47/106 
f 106/47/106 110/52/110 111/53/111 107/48/107 
f 107/48/107 111/53/111 112/54/112 108/49/108 
f 108/49/108 112/54/112 109/55/109 105/50/105 
f 109/51/109 113/56/113 114/57/114 110/52/110 
f 110/52/110 114/57/114 115/58/115 111/53/111 
f 111/53/111 115/58/115 116/59/116 112/54/112 
f 112/54/112 116/59/116 113/60/113 109/55/109 
f 113/56/113 117/61/117 118/62/118 114/57/114 
f 114/57/114 118/62/118 119/63/119 115/58/115 
f 115/58/115 119/63/119 120/64/120 116/59/116 
f 116/59/116 120/64/120 117/65/117 113/60/113 
f 117/61/117 121/66/121 122/67/122 118/62/118 
f 118/62/118 122/67/122 123/68/123 119/63/119 
f 119/63/119 123/68/123 124/69/124 120/64/120 
f 120/64/120 124/69/124 121/70/121 117/65/117 
f 121/66/121 125/71/125 126/72/126 122/67/122 
f 122/67/122 126/72/126 127/73/127 123/68/123 
f 123/68/123 127/73/127 128/74/128 124/69/124 
f 124/69/124 128/74/128 125/75/125 121/70/121 
f 125/71/125 129/76/129 130/77/130 126/72/126 
f 126/72/126 130/77/130 131/78/131 127/73/127 
f 127/73/127 131/78/131 132/79/132 128/74/128 
f 128/74/128 132/79/132 129/80/129 125/75/125 
f 129/76/129 1/81/1 4/82/4 130/77/130 
f 130/77/130 4/82/4 6/83/6 131/78/131 
f 131/78/131 6/83/6 8/84/8 132/79/132 
f 132/79/132 8/84/8 1/85/1 129/80/129 
s 1
f 133/1/133 134/4/134 135/6/135 136/86/136 
s 2
f 133/1/133 137/2/137 138/3/138 134/4/134 
f 134/4/134 138/3/138 139/5/139 135/6/135 
f 135/6/135 139/5/139 140/7/140 136/8/136 
f 136/8/136 140/7/140 137/9/137 133/10/133 
f 137/2/137 141/11/141 142/12/142 138/3/138 
f 138/3/138 142/12/142 143/13/143 139/5/139 
f 139/5/139 143/13/143 144/14/144 140/7/140 
f 140/7/140 144/14/144 141/15/141 137/9/137 
f 141/11/141 145/16/145 146/17/146 142/12/142 
f 142/12/142 146/17/146 147/18/147 143/13/143 
f 143/13/143 147/18/147 148/19/148 144/14/144 
f 144/14/144 148/19/148 145/20/145 141/15/141 
f 145/16/145 149/21/149 150/22/150 146/17/146 
f 146/17/146 150/22/150 151/23/151 147/18/147 
f 147/18/147 151/23/151 152/24/152 148/19/148 
f 148/19/148 152/24/152 149/25/149 145/20/145 
f 149/21/149 153/26/153 154/27/154 150/22/150 
f 150/22/150 154/27/154 155/28/155 151/23/151 
f 151/23/151 155/28/155 156/29/156 152/24/152 
f 152/24/152 156/29/156 153/30/153 149/25/149 
f 153/26/153 157/31/157 158/32/158 154/27/154 
f 154/27/154 158/32/158 159/33/159 155/28/155 
f 155/28/155 159/33/159 160/34/160 156/29/156 
f 156/29/156 160/34/160 157/35/157 153/30/153 
f 157/31/157 161/36/161 162/37/162 158/32/158 
f 158/32/158 162/37/162 163/38/163 159/33/159 
f 159/33/159 163/38/163 164/39/164 160/34/160 
f 160/34/160 164/39/164 161/40/161 157/35/157 
f 161/36/161 165/41/165 166/42/166 162/37/162 
f 162/37/162 166/42/166 167/43/167 163/38/163 
f 163/38/163 167/43/167 168/44/168 164/39/164 
f 164/39/164 168/44/168 165/45/165 161/40/161 
f 165/41/165 169/46/169 170/47/170 166/42/166 
f 166/42/166 170/47/170 171/48/171 167/43/167 
f 167/43/167 171/48/171 172/49/172 168/44/168 
f 168/44/168 172/49/172 169/50/169 165/45/165 
f 169/46/169 173/51/173 174/52/174 170/47/170 
f 170/47/170 174/52/174 175/53/175 171/48/171 
f 171/48/171 175/53/175 176/54/176 172/49/172 
f 172/49/172 176/54/176 173/55/173 169/50/169 
f 173/51/173 177/56/177 178/57/178 174/52/174 
f 174/52/174 178/57/178 179/58/179 175/53/175 
f 175/53/175 179/58/179 180/59/180 176/54/176 
f 176/54/176 180/59/180 177/60/177 173/55/173 
f 177/56/177 181/61/181 182/62/182 178/57/178 
f 178/57/178 182/62/182 183/63/183 179/58/179 
f 179/58/179 183/63/183 184/64/184 180/59/180 
f 180/59/180 184/64/184 181/65/181 177/60/177 
f 181/61/181 185/66/185 186/67/186 182/62/182 
f 182/62/182 186/67/186 187/68/187 183/63/183 
f 183/63/183 187/68/187 188/69/188 184/64/184 
f 184/64/184 188/69/188 185/70/185 181/65/181 
f 185/66/185 189/71/189 190/72/190 186/67/186 
f 186/67/186 190/72/190 191/73/191 187/68/187 
f 187/68/187 191/73/191 192/74/192 188/69/188 
f 188/69/188 192/74/192 189/75/189 185/70/185 
f 189/71/189 193/76/193 194/77/194 190/72/190 
f 190/72/190 194/77/194 195/78/195 191/73/191 
f 191/73/191 195/78/195 196/79/196 192/74/192 
f 192/74/192 196/79/196 193/80/193 189/75/189 
f 193/76/193 69/81/69 72/82/72 194/77/194 
f 194/77/194 72/82/72 197/83/197 195/78/195 
f 195/78/195 197/83/197 76/84/76 196/79/196 
f 196/79/196 76/84/76 69/85/69 193/80/193 
# 194 polygons

